<svg xmlns="http://www.w3.org/2000/svg" width="41" height="41" fill="none" viewBox="0 0 41 41"><path fill="#0c6" d="M14.827 0c-2.275 0-4.08 0-5.531.119-1.488.12-2.744.375-3.892.958A9.9 9.9 0 0 0 1.08 5.404C.494 6.55.24 7.808.12 9.296 0 10.748 0 12.552 0 14.827v10.97c0 2.276 0 4.08.119 5.532.12 1.488.375 2.744.958 3.894a9.9 9.9 0 0 0 4.327 4.323c1.146.585 2.404.84 3.892.96 1.452.119 3.256.119 5.531.119h10.97c2.276 0 4.08 0 5.532-.119 1.488-.12 2.744-.375 3.894-.958a9.9 9.9 0 0 0 4.323-4.325c.585-1.15.84-2.406.96-3.894.119-1.452.119-3.256.119-5.531v-10.97c0-2.276 0-4.08-.119-5.532-.12-1.488-.375-2.744-.958-3.892a9.9 9.9 0 0 0-4.325-4.325c-1.15-.585-2.406-.84-3.894-.96C29.877 0 28.073 0 25.798 0zm14.34 8.854a1.563 1.563 0 0 1 1.562-1.562h1.042a1.563 1.563 0 1 1 0 3.125h-1.042a1.563 1.563 0 0 1-1.562-1.563m-12.932 3.6a8.855 8.855 0 1 1 8.408 15.586 8.855 8.855 0 0 1-8.408-15.586"/></svg>